PathFileType	4	(X/Y/Z)	/Users/itak/Documents/Research/Walk-IL/dataset/trc/00394_00012.trc
DataRate	CameraRate	NumFrames	NumMarkers	Units	OrigDataRate	OrigDataStartFrame	OrigNumFrames
100.000000	100.000000	4	54	mm	100.000000	341	683
Frame#	Time	RPSI			LPSI			L3			STRN			T10			C7			CLAV			RBAK			LBAK			LSHO			LUPA			LAEL			LAOL			LWTS			LWPS			LFRA			LIFD			LHPS			RSHO			RUPA			RAEL			RAOL			RWTS			RWPS			RFRA			RIFD			RHTS			RHPS			RBHD			LFHD			RFHD			LBHD			RHIP			RASI			LASI			LKNE			LTHI			LANK			LTIP			LTOE			LMT1			LMT5			LHEE			RKNE			RTHI			RANK			RTIP			RTOE			RMT1			RMT5			RHEE			LHTS			LHIP			*53			
		X1	Y1	Z1	X2	Y2	Z2	X3	Y3	Z3	X4	Y4	Z4	X5	Y5	Z5	X6	Y6	Z6	X7	Y7	Z7	X8	Y8	Z8	X9	Y9	Z9	X10	Y10	Z10	X11	Y11	Z11	X12	Y12	Z12	X13	Y13	Z13	X14	Y14	Z14	X15	Y15	Z15	X16	Y16	Z16	X17	Y17	Z17	X18	Y18	Z18	X19	Y19	Z19	X20	Y20	Z20	X21	Y21	Z21	X22	Y22	Z22	X23	Y23	Z23	X24	Y24	Z24	X25	Y25	Z25	X26	Y26	Z26	X27	Y27	Z27	X28	Y28	Z28	X29	Y29	Z29	X30	Y30	Z30	X31	Y31	Z31	X32	Y32	Z32	X33	Y33	Z33	X34	Y34	Z34	X35	Y35	Z35	X36	Y36	Z36	X37	Y37	Z37	X38	Y38	Z38	X39	Y39	Z39	X40	Y40	Z40	X41	Y41	Z41	X42	Y42	Z42	X43	Y43	Z43	X44	Y44	Z44	X45	Y45	Z45	X46	Y46	Z46	X47	Y47	Z47	X48	Y48	Z48	X49	Y49	Z49	X50	Y50	Z50	X51	Y51	Z51	X52	Y52	Z52	X53	Y53	Z53	X54	Y54	Z54	

342	3.41	-455.2127990722656	954.8214111328125	63.27535247802734	-458.3164672851562	952.5491333007812	-70.38866424560547	-452.046875	1028.287231445312	-3.729942560195923	-218.1123657226562	1185.83056640625	11.1417121887207	-461.4893188476562	1131.329711914062	-7.492763042449951	-427.9833679199219	1381.06201171875	-15.58344554901123	-273.8269348144531	1304.274291992188	4.950743675231934	-473.2337951660156	1235.158447265625	50.28194808959961	-432.0704040527344	1342.4951171875	-119.9437789916992	-340.35693359375	1357.8701171875	-162.3157043457031	-356.996337890625	1241.911865234375	-233.9560394287109	-337.5721130371094	1048.28369140625	-264.1951904296875	-393.6645812988281	1023.21533203125	-205.2855224609375	-250.4661407470703	829.7742309570312	-229.4926910400391	-299.4846801757812	821.6719970703125	-295.103515625	-322.3676452636719	944.134765625	-278.6780395507812	-260.5023803710938	651.231689453125	-239.7353668212891	-287.5409545898438	735.6532592773438	-291.4983825683594	-384.1874084472656	1362.878051757812	147.5263214111328	-403.2569885253906	1299.433349609375	205.6725158691406	-405.092041015625	1042.1142578125	259.8065490722656	-415.7431945800781	1025.05712890625	166.1014862060547	-267.17919921875	833.7012939453125	261.5315856933594	-314.8818359375	824.5128784179688	316.9029235839844	-379.1053771972656	979.1571655273438	282.9076843261719	-260.8471069335938	661.4509887695312	278.2063598632812	-245.6324310302734	731.9100952148438	292.6353149414062	-306.8072814941406	735.7781982421875	324.9582214355469	-410.7140808105469	1560.831909179688	73.96892547607422	-272.2085266113281	1587.235961914062	-66.25544738769531	-283.5747680664062	1593.807739257812	55.92522048950195	-413.5086669921875	1546.77392578125	-88.25135803222656	-370.7637939453125	928.46435546875	176.2864685058594	-242.7803649902344	939.33544921875	117.3994064331055	-259.5518188476562	930.8157958984375	-145.49658203125	-338.8481750488281	436.9600219726562	-144.6290435791016	-332.644775390625	579.8355712890625	-161.1325988769531	-714.1508178710938	174.865966796875	-144.8269805908203	-527.852294921875	292.6737365722656	-154.5272674560547	-595.2359619140625	38.50085830688477	-28.29600143432617	-647.017822265625	94.06345367431641	-21.85660171508789	-637.4945068359375	73.88102722167969	-127.0642852783203	-748.0822143554688	210.7638397216797	-98.4150390625	-163.5229797363281	475.9381103515625	97.36205291748047	-238.3827972412109	718.5669555664062	153.8963470458984	-190.2462463378906	54.10239410400391	65.02646636962891	-140.5511932373047	350.4124755859375	76.76949310302734	-20.0393009185791	39.50955581665039	-13.91006946563721	-96.82422637939453	39.94932174682617	-38.09502029418945	-105.0197219848633	46.75056076049805	61.32570648193359	-268.9469604492188	40.11348724365234	20.81335830688477	-235.6750793457031	733.0303955078125	-255.1753845214844	-370.8320617675781	942.661865234375	-184.67822265625	nan	nan	nan	
343	3.42	-466.3932189941406	952.8114624023438	63.04658508300781	-469.5728759765625	951.275146484375	-70.69475555419922	-463.0653991699219	1026.346069335938	-4.056669235229492	-229.5447387695312	1183.73095703125	11.32050323486328	-472.5177001953125	1129.293090820312	-7.660879135131836	-439.2103271484375	1379.125122070312	-15.96686172485352	-285.1547546386719	1302.187866210938	5.033124446868896	-484.7959899902344	1233.18505859375	49.70273971557617	-443.0914306640625	1340.59619140625	-120.4017486572266	-351.2150573730469	1355.851440429688	-162.3819122314453	-367.0068359375	1239.92578125	-234.1835632324219	-345.7706909179688	1046.4912109375	-264.8823547363281	-402.2435302734375	1020.879943847656	-206.5934448242188	-256.1895751953125	829.3036499023438	-230.4659423828125	-305.2002868652344	820.3609619140625	-295.9461059570312	-329.4625549316406	942.5811157226562	-279.4341430664062	-263.757080078125	650.6267700195312	-239.8934326171875	-292.0682983398438	734.4281616210938	-291.9927368164062	-396.0047912597656	1360.853515625	147.2380981445312	-415.4204711914062	1297.376953125	205.2356109619141	-418.3743896484375	1039.989379882812	259.0665893554688	-427.7422485351562	1022.977600097656	165.0708923339844	-279.3206787109375	832.4135131835938	262.5439147949219	-327.8363952636719	822.7611083984375	317.091552734375	-392.4879455566406	977.0390625	282.3984069824219	-271.6310424804688	660.2916259765625	279.3008728027344	-257.3829345703125	730.8470458984375	294.0216369628906	-319.0387878417969	734.1187133789062	325.2549133300781	-421.9978637695312	1558.8291015625	73.60054016113281	-282.8570251464844	1585.137817382812	-66.011474609375	-294.7537231445312	1591.69091796875	56.14044189453125	-424.0729675292969	1544.8525390625	-88.62106323242188	-381.9686889648438	926.2100830078125	175.9861907958984	-254.0032806396484	937.2388305664062	116.9706726074219	-270.9955139160156	928.801513671875	-145.8875274658203	-359.10595703125	435.1947021484375	-141.3599395751953	-349.7079162597656	578.2045288085938	-159.359130859375	-731.4954833984375	168.1521606445312	-141.4377288818359	-546.935546875	288.7471008300781	-151.1322326660156	-610.534423828125	37.50077056884766	-23.05175590515137	-663.2515869140625	90.03431701660156	-17.50849151611328	-652.7708129882812	69.61652374267578	-122.6293106079102	-766.1574096679688	203.9314270019531	-95.45534515380859	-169.6743621826172	476.46923828125	96.87773132324219	-247.8531036376953	717.8045043945312	153.2644500732422	-190.1432495117188	54.07206344604492	64.98502349853516	-144.9316101074219	351.3753051757812	76.53957366943359	-19.81977653503418	38.86328506469727	-14.12458801269531	-96.62252807617188	39.73184967041016	-38.21637725830078	-104.810188293457	46.57831192016602	61.23441696166992	-268.7642822265625	39.8164176940918	20.67194557189941	-240.0826568603516	732.6937866210938	-255.8308258056641	-382.2859802246094	941.4077758789062	-185.1883850097656	nan	nan	nan	
344	3.43	-477.9148559570312	950.79248046875	62.71897125244141	-481.2000122070312	949.8858642578125	-71.08867645263672	-474.4621887207031	1024.507446289062	-4.430805683135986	-241.1113586425781	1181.58740234375	11.32212448120117	-483.6722106933594	1127.308349609375	-7.878221988677979	-450.5234680175781	1377.219604492188	-16.3148250579834	-296.5782775878906	1300.071533203125	4.998984336853027	-496.4647827148438	1231.302368164062	49.22779846191406	-454.32861328125	1338.70166015625	-120.8100662231445	-362.3463439941406	1353.797607421875	-162.5145263671875	-377.4049072265625	1237.869140625	-234.41455078125	-354.2481079101562	1044.63330078125	-265.5164489746094	-410.9798889160156	1018.45751953125	-207.7796478271484	-261.91015625	828.9423828125	-231.3858184814453	-310.9252319335938	819.0955200195312	-296.7064208984375	-336.7157592773438	941.0042114257812	-280.1202087402344	-266.6788635253906	650.1798095703125	-240.1722869873047	-296.4736633300781	733.3291015625	-292.4880065917969	-407.7244567871094	1358.853515625	146.9584045410156	-427.4591674804688	1295.355346679688	204.8328399658203	-431.6263427734375	1037.899291992188	258.3651123046875	-439.8794555664062	1020.943664550781	164.1045074462891	-291.5177307128906	831.1282958984375	263.3859558105469	-340.7826843261719	820.98193359375	317.1651306152344	-405.847412109375	974.92822265625	281.8778381347656	-282.5384521484375	659.1205444335938	280.1137390136719	-269.2265014648438	729.7467041015625	295.1524047851562	-331.284912109375	732.4249877929688	325.3690185546875	-433.266845703125	1556.855346679688	73.24406433105469	-293.53369140625	1583.044189453125	-65.80789184570312	-305.9053955078125	1589.560668945312	56.31819534301758	-434.6843872070312	1542.981323242188	-88.97477722167969	-393.5136108398438	924.0574951171875	175.6147155761719	-265.5533752441406	935.1720581054688	116.496467590332	-282.7523803710938	926.7597045898438	-146.3288116455078	-379.2366638183594	433.7057189941406	-138.4780883789062	-366.9490356445312	576.7369384765625	-157.8491516113281	-747.6825561523438	160.4132843017578	-137.7686767578125	-565.38623046875	284.5307006835938	-147.8436584472656	-622.9824829101562	36.87981414794922	-18.69311141967773	-677.1146850585938	85.51496124267578	-13.48862934112549	-666.01904296875	65.32118988037109	-118.5783157348633	-783.159423828125	195.7201995849609	-92.01131439208984	-176.5682678222656	476.9269714355469	96.66551971435547	-257.813232421875	717.1073608398438	152.7420806884766	-189.9869232177734	54.01651763916016	65.01477813720703	-149.8748321533203	352.3363342285156	76.57777404785156	-19.53991889953613	38.18582153320312	-14.34692478179932	-96.34435272216797	39.55595397949219	-38.29631042480469	-104.5208740234375	46.39352035522461	61.18991851806641	-268.5203857421875	39.45928955078125	20.49906539916992	-244.3299865722656	732.5579223632812	-256.5206909179688	-394.0767517089844	940.0044555664062	-185.7519226074219	nan	nan	nan	
345	3.44	-489.8020324707031	948.7999267578125	62.3201789855957	-493.2161254882812	948.4271850585938	-71.53685760498047	-486.2310180664062	1022.78271484375	-4.855470657348633	-252.8186187744141	1179.405395507812	11.14517593383789	-494.9656066894531	1125.403442382812	-8.16230297088623	-461.9091186523438	1375.3701171875	-16.64174270629883	-308.0966796875	1297.939575195312	4.843358039855957	-508.2306823730469	1229.530883789062	48.83428573608398	-465.7574768066406	1336.841064453125	-121.1874465942383	-373.7146911621094	1351.73974609375	-162.72216796875	-388.1663513183594	1235.77197265625	-234.660888671875	-363.0166015625	1042.735717773438	-266.1021728515625	-419.8950500488281	1015.989013671875	-208.8446197509766	-267.6770935058594	828.7110595703125	-232.216796875	-316.6778564453125	817.9143676757812	-297.3715209960938	-344.1452331542969	939.4317016601562	-280.7306823730469	-269.297607421875	649.9396362304688	-240.6115264892578	-300.7760925292969	732.4083862304688	-292.9970703125	-419.3442687988281	1356.893432617188	146.6805114746094	-439.3810424804688	1293.380859375	204.4518432617188	-444.82861328125	1035.861938476562	257.7064208984375	-452.1512756347656	1018.965087890625	163.2079315185547	-303.7625427246094	829.8488159179688	264.0593872070312	-353.7056579589844	819.1958618164062	317.1343078613281	-419.1612243652344	972.844970703125	281.3530883789062	-293.600341796875	657.9356079101562	280.6504821777344	-281.1686401367188	728.6040649414062	296.0223083496094	-343.5529174804688	730.7156372070312	325.3153076171875	-444.5196533203125	1554.929077148438	72.90343475341797	-304.2416076660156	1580.98095703125	-65.64595794677734	-317.0298156738281	1587.436889648438	56.46015930175781	-445.3506469726562	1541.184692382812	-89.30979156494141	-405.408203125	922.02783203125	175.1880950927734	-277.4590454101562	933.138427734375	115.9617767333984	-294.8463439941406	924.7135009765625	-146.8369750976562	-399.1268310546875	432.4916381835938	-136.095703125	-384.3288879394531	575.4467163085938	-156.6674041748047	-762.6755981445312	151.9278411865234	-133.9142303466797	-583.1113891601562	280.1189880371094	-144.7501525878906	-632.7538452148438	36.59566879272461	-15.2446870803833	-688.718994140625	80.72632598876953	-9.843937873840332	-677.3515625	61.187255859375	-114.9617156982422	-799.0441284179688	186.4237518310547	-88.18516540527344	-184.2493438720703	477.3035888671875	96.77053833007812	-268.30712890625	716.49072265625	152.3475189208984	-189.7477264404297	53.94210815429688	65.14890289306641	-155.4229431152344	353.2965698242188	76.94029998779297	-19.1929874420166	37.55466079711914	-14.54914283752441	-95.97547149658203	39.48083114624023	-38.30392074584961	-104.1267700195312	46.20374298095703	61.22024536132812	-268.1842651367188	39.08106231689453	20.34350776672363	-248.4578704833984	732.6635131835938	-257.2359924316406	-406.2319030761719	938.491455078125	-186.3468627929688	nan	nan	nan	
